<svg xmlns="http://www.w3.org/2000/svg" viewBox="0 0 500 500"><g id="freepik--Floor--inject-106"><path id="freepik--floor--inject-106" d="M86.28,250.66c-90.42,52.2-90.42,136.84,0,189s237,52.2,327.44,0,90.42-136.85,0-189S176.7,198.45,86.28,250.66Z" style="fill:#f5f5f5"></path><g id="freepik--Flowers--inject-106"><path d="M300.21,380.91s1.1-3.22,3.22-2.11,1.38,3.13-.46,3.59c0,0,4,1.29,2.86,3.41s-4.52-.1-5.25-1.2c0,0-.74,3.24-3.5,2.08s0-3.93,0-3.93-4.24-1.65-1.94-3.59S300.21,380.91,300.21,380.91Z" style="fill:#fff"></path><path d="M302.78,317.39s1.1-3.22,3.22-2.12,1.38,3.14-.46,3.6c0,0,4,1.29,2.85,3.4s-4.51-.09-5.25-1.19c0,0-.73,3.24-3.5,2.08s0-3.93,0-3.93-4.23-1.65-1.93-3.59S302.78,317.39,302.78,317.39Z" style="fill:#fff"></path><path d="M319,269.78s1.11-3.22,3.23-2.12,1.38,3.14-.46,3.6c0,0,4,1.29,2.85,3.4s-4.51-.09-5.25-1.19c0,0-.74,3.24-3.5,2.08s0-3.93,0-3.93S311.65,270,314,268,319,269.78,319,269.78Z" style="fill:#fff"></path><path d="M152.72,432.49s.32-4.57,3.92-5.06c0,0,2.94-.49,4.57,4.08,0,0,3.59-1.79,8.49,1,0,0,.82,4.25-3.92,5.88,0,0,2.78,2.13,1.47,7.19,0,0-7.35,2.45-9.14-2.13,0,0-.66,4.09-7.84,4.09a6.84,6.84,0,0,1,0-8.17s-5.07-.16-5.88-3.92C144.39,435.43,147.82,429.72,152.72,432.49Z" style="fill:#fff"></path><path d="M161.54,438.41s-.67,1.11-3.58,1.11-3.58-1.11-3.58-1.11a3.58,3.58,0,1,1,7.16,0Z" style="fill:#ffbda7"></path><path d="M320.13,416.57s.36-4.94,4.24-5.47c0,0,3.17-.53,4.94,4.41,0,0,3.88-1.94,9.17,1.06,0,0,.88,4.58-4.24,6.35,0,0,3,2.29,1.59,7.76,0,0-7.93,2.64-9.88-2.3,0,0-.7,4.41-8.46,4.41a7.38,7.38,0,0,1,0-8.81s-5.47-.18-6.35-4.24C311.14,419.74,314.84,413.57,320.13,416.57Z" style="fill:#fff"></path><path d="M330,423.05s-.83,1.36-4.38,1.36-4.37-1.36-4.37-1.36a4.38,4.38,0,0,1,8.75,0Z" style="fill:#ffbda7"></path><path d="M440.61,324.5s.33-4.59,3.93-5.08c0,0,2.95-.49,4.59,4.1,0,0,3.6-1.81,8.51,1,0,0,.82,4.25-3.93,5.89,0,0,2.78,2.13,1.47,7.21,0,0-7.36,2.45-9.16-2.13,0,0-.66,4.09-7.86,4.09a6.87,6.87,0,0,1,0-8.19s-5.08-.16-5.9-3.92C432.26,327.45,435.7,321.71,440.61,324.5Z" style="fill:#fff"></path><path d="M449.69,330.74s-.77,1.26-4.06,1.26-4.07-1.26-4.07-1.26a4.07,4.07,0,0,1,8.13,0Z" style="fill:#ffbda7"></path><path d="M255.39,298.45s.3-4.23,3.63-4.68c0,0,2.72-.46,4.23,3.77,0,0,3.32-1.66,7.86.91a4.89,4.89,0,0,1-3.63,5.44s2.57,2,1.36,6.65c0,0-6.8,2.27-8.46-2,0,0-.61,3.78-7.26,3.78a6.34,6.34,0,0,1,0-7.56s-4.68-.15-5.44-3.63C247.68,301.17,250.85,295.88,255.39,298.45Z" style="fill:#fff"></path><path d="M263.77,304.21s-.71,1.16-3.75,1.16-3.75-1.16-3.75-1.16a3.75,3.75,0,0,1,7.5,0Z" style="fill:#ffbda7"></path><path d="M241.05,435.54s-.38-4,2.42-3.84,3,2.69,1.25,4.07c0,0,4.87-.54,4.72,2.26s-4.88,2.1-6.21,1.27c0,0,.79,3.83-2.73,3.93s-1.91-4.21-1.91-4.21-5.34.29-3.81-2.9S241.05,435.54,241.05,435.54Z" style="fill:#fff"></path><path d="M446.71,365s-.38-4,2.42-3.84,3,2.68,1.26,4.07c0,0,4.86-.54,4.71,2.26s-4.88,2.1-6.2,1.27c0,0,.78,3.83-2.74,3.93s-1.91-4.21-1.91-4.21-5.34.29-3.81-2.9S446.71,365,446.71,365Z" style="fill:#fff"></path><path d="M88.25,406.23s-.38-4,2.42-3.83,3,2.68,1.25,4.07c0,0,4.87-.54,4.72,2.26s-4.88,2.09-6.2,1.27c0,0,.78,3.83-2.74,3.93s-1.91-4.21-1.91-4.21-5.34.29-3.81-2.9S88.25,406.23,88.25,406.23Z" style="fill:#fff"></path><path d="M353.07,392.78s3.21-4.25.77-5.28-3.48,2.64-3.48,2.64-2.44-2.9-3.6-.84,1.8,4.25,1.8,4.25-3.35,1.8-1.42,3.61,4.25-1,4.25-1,1.32,3.22,3.37,2.31S355.51,393.81,353.07,392.78Z" style="fill:#fff"></path><path d="M59.05,305.27s-3.33-4.26-6.22-.91c-2,2.37,3.11,4.09,3.11,4.09s-4.6,2.54-1.46,4.75C58,315.69,60,310.57,60,310.57s3.53,3.89,5.94,1c2.69-3.24-2.91-4.32-2.91-4.32s3.79-1.56,2.73-4S60.26,302.39,59.05,305.27Z" style="fill:#fff"></path></g></g><g id="freepik--Clouds--inject-106"><path id="freepik--Cloud--inject-106" d="M244.14,58a12.53,12.53,0,0,0-4.28-.79c-1.39-.11-1.82-.39-2.09-.69a10.22,10.22,0,0,0-12.27-3.62c-.81-3.32-4.83-6.2-9.25-5.23.15-4.31-5.35-8.94-10.3-10-4.74-1-8.88-.58-11.59,2.54-2.89-5.66-14.25-7.26-20.4-4.26-3.53,1.72-6.53,3.48-8,6.72a13.65,13.65,0,0,0-1.33,6.44c-2.39-2.11-7.19-2.68-10.39-1.44-3.45,1.33-3.71,3.93-3.88,6.58a12.22,12.22,0,0,0-6.28-.12c-2.17.65-3.43,2.35-3.13,3.73-1.72-.09-5.81,1.3-5.34,3.11.53,2,5.2,1.83,6.95,1.77a31.7,31.7,0,0,0,4.89-.77,7.6,7.6,0,0,0,2.55.49c3,0,4.24-1.3,4.71-2.41,1.46,3.06,6.63,5.39,10.29,6.33,6.89,1.76,16.63.69,20.87-4.46a7.71,7.71,0,0,0,2,2.5A12,12,0,0,0,194.3,67c2.82.26,10.41.63,12.55-3.87,1.52,3,8.27,4.35,13.41,3.62A21.26,21.26,0,0,0,226,65a34.73,34.73,0,0,0,3.3-2c1-.61,1.47-.6,2.82-.19,3.53,1.06,7.62,1.5,11.22,0C246.24,61.58,246.83,59.18,244.14,58Z" style="fill:#f0f0f0"></path><path id="freepik--cloud--inject-106" d="M122.54,113.34a9.7,9.7,0,0,0-3.29-.6c-1.06-.09-1.4-.3-1.6-.53a7.86,7.86,0,0,0-9.43-2.79,6,6,0,0,0-7.11-4c.12-3.32-4.11-6.88-7.91-7.68s-6.82-.45-8.9,1.94c-2.23-4.35-11-5.57-15.68-3.27-2.71,1.32-5,2.68-6.14,5.17a10.38,10.38,0,0,0-1,5c-1.84-1.63-5.52-2.06-8-1.11-2.65,1-2.85,3-3,5a9.41,9.41,0,0,0-4.83-.09c-1.67.5-2.63,1.81-2.4,2.87-1.32-.07-4.47,1-4.11,2.39.41,1.56,4,1.41,5.34,1.36a25,25,0,0,0,3.76-.59,5.94,5.94,0,0,0,2,.37c2.29,0,3.25-1,3.62-1.85,1.12,2.35,5.09,4.14,7.9,4.86,5.3,1.36,12.78.53,16-3.42a6,6,0,0,0,1.58,1.92,9.15,9.15,0,0,0,4.89,2c2.18.2,8,.48,9.65-3,1.17,2.29,6.36,3.34,10.31,2.78a16.08,16.08,0,0,0,4.42-1.34,27.06,27.06,0,0,0,2.54-1.52,2.11,2.11,0,0,1,2.16-.15,12.91,12.91,0,0,0,8.63,0C124.15,116.13,124.61,114.28,122.54,113.34Z" style="fill:#f5f5f5"></path><path id="freepik--cloud--inject-106" d="M399.35,72.27a9.07,9.07,0,0,0-3.06-.57c-1-.08-1.31-.27-1.5-.49A7.31,7.31,0,0,0,386,68.62a5.59,5.59,0,0,0-6.61-3.74c.1-3.09-3.83-6.4-7.37-7.16s-6.36-.42-8.29,1.82c-2.08-4-10.2-5.19-14.6-3-2.53,1.23-4.68,2.49-5.72,4.81a9.66,9.66,0,0,0-1,4.61c-1.71-1.51-5.14-1.92-7.43-1-2.47,1-2.66,2.81-2.78,4.7a8.66,8.66,0,0,0-4.49-.08c-1.56.46-2.45,1.68-2.24,2.67-1.23-.07-4.16.93-3.82,2.22.38,1.46,3.72,1.31,5,1.27a23.89,23.89,0,0,0,3.5-.55,5.22,5.22,0,0,0,1.82.34c2.13,0,3-.92,3.38-1.72,1,2.19,4.74,3.86,7.36,4.53,4.92,1.26,11.9.49,14.93-3.19a5.53,5.53,0,0,0,1.47,1.79,8.51,8.51,0,0,0,4.56,1.85c2,.19,7.45.45,9-2.77,1.08,2.14,5.92,3.11,9.6,2.59a15.31,15.31,0,0,0,4.11-1.24,24.34,24.34,0,0,0,2.37-1.42,2,2,0,0,1,2-.14,12,12,0,0,0,8,0C400.85,74.86,401.28,73.14,399.35,72.27Z" style="fill:#f5f5f5"></path></g><g id="freepik--Shadow--inject-106"><path id="freepik--shadow--inject-106" d="M83.85,336.25c2.85.06,5.69.1,8.54.07a2.27,2.27,0,0,0,1.8-.58,2,2,0,0,0,.27-1.44c-.21-2.2-1.26-4.21-2.12-6.25-7.29-17.25,28.12-19.55,38-19.11,11.73.54,23.22,3.39,34.53,6.55q24,6.72,47.42,15.39c13.61,5,26.3,11.42,36.34,22.22,4.83,5.19,9.49,10.74,12.19,17.3s3.19,14.35-.21,20.58c-3.23,5.91-9.55,9.65-16.1,11.25s-13.39,1.31-20.12.91c-2.08,7-7.78,12.44-14.34,15.56s-13.94,4.1-21.2,4.32a108.37,108.37,0,0,1-58.17-15.13c-17.39-10.33-43.28-28.69-50.8-33.24s-13.14-6.77-19-10c-5.58-3.1-10.82-5.66-16.11-9.37-1.55-1.09-3.17-2.27-3.87-4-4.6-11.54,21.78-14.65,27.9-15C73.81,336,78.83,336.15,83.85,336.25Z" style="fill:#e0e0e0"></path></g><g id="freepik--Plant--inject-106"><g id="freepik--plant--inject-106"><path d="M387.4,285.6c-3.83-4.61-4.73-10.9.9-15.7A50.71,50.71,0,0,1,421.11,258c8.15,0,16.44.44,24.23,3,3.62,1.19,8.46,2.92,11.19,5.7,3.48,3.54-1.72,7.28-4.08,9.8-7.18,7.63-9.47,20.23-18.41,26.07-8.64,5.64-21.59.26-26-8.34a3.31,3.31,0,0,0-.66-1,3.09,3.09,0,0,0-1.94-.55,35,35,0,0,1-10.7-1.92A17.66,17.66,0,0,1,387.4,285.6Z" style="fill:#BA68C8"></path><path d="M387.4,285.6c-3.83-4.61-4.73-10.9.9-15.7A50.71,50.71,0,0,1,421.11,258c8.15,0,16.44.44,24.23,3,3.62,1.19,8.46,2.92,11.19,5.7,3.48,3.54-1.72,7.28-4.08,9.8-7.18,7.63-9.47,20.23-18.41,26.07-8.64,5.64-21.59.26-26-8.34a3.31,3.31,0,0,0-.66-1,3.09,3.09,0,0,0-1.94-.55,35,35,0,0,1-10.7-1.92A17.66,17.66,0,0,1,387.4,285.6Z" style="fill:#fff;opacity:0.6000000000000001"></path><path d="M448.24,280.79c-4.63,3.75-8.78,8.17-14,11.12-2.86,1.62-6.2,2.79-9.41,2.07-5.18-1.15-8.27-7.2-7.27-12.41s5.22-9.35,10-11.57c-3.41,1.31-6.89,2.48-10.29,3.82s-6.24,3.3-9.38,4.95c-3.37,1.76-7.24,3.08-10.94,2.21a9.88,9.88,0,0,1-7.28-12.26c-.49.39-1,.78-1.45,1.18-5.63,4.8-4.73,11.09-.9,15.7a17.66,17.66,0,0,0,7.3,5.18,35,35,0,0,0,10.7,1.92,3.09,3.09,0,0,1,1.94.55,3.31,3.31,0,0,1,.66,1c4.45,8.6,17.4,14,26,8.34,7.91-5.17,10.62-15.62,16.1-23.24C449.49,279.8,448.86,280.29,448.24,280.79Z" style="fill:#BA68C8;opacity:0.2"></path><path d="M430.52,268.1c-4.54.93-8.28,3.51-11.94,6.27a38.14,38.14,0,0,0-9.29,10.12c-2.6,4-5,8.21-6.13,12.91a102.79,102.79,0,0,0-2,14.64c-.27,2.82-.49,5.64-.59,8.46s-.59,5.93.92,8.32c.39.62,1.63,1.24,2.07.32.81-1.68.62-3.47.64-5.28,0-1.62.09-3.24.18-4.85.18-3,.47-6.07.8-9.09s.61-6.33,1.13-9.46a34.07,34.07,0,0,1,2.66-8.3c2.18-4.85,4.85-9.85,8.75-13.54a57.72,57.72,0,0,1,13-9.47C431.13,269,431,268,430.52,268.1Z" style="fill:#BA68C8"></path><path d="M430.52,268.1c-4.54.93-8.28,3.51-11.94,6.27a38.14,38.14,0,0,0-9.29,10.12c-2.6,4-5,8.21-6.13,12.91a102.79,102.79,0,0,0-2,14.64c-.27,2.82-.49,5.64-.59,8.46s-.59,5.93.92,8.32c.39.62,1.63,1.24,2.07.32.81-1.68.62-3.47.64-5.28,0-1.62.09-3.24.18-4.85.18-3,.47-6.07.8-9.09s.61-6.33,1.13-9.46a34.07,34.07,0,0,1,2.66-8.3c2.18-4.85,4.85-9.85,8.75-13.54a57.72,57.72,0,0,1,13-9.47C431.13,269,431,268,430.52,268.1Z" style="opacity:0.1"></path><path d="M362.88,267.08a28.78,28.78,0,0,1-21.2-5.18c-7.46-5.64-9.77-13.26-12-21.93a105,105,0,0,0-7.23-19.55c-1-2-2.32-3.93-3.48-5.85-2-3.42.66-5.78,3.93-6.73A55.81,55.81,0,0,1,337.78,206a114.91,114.91,0,0,1,28.87,3.06,92.24,92.24,0,0,1,13.77,4.48c5.86,2.44,11.32,5,16.14,9.24,3.56,3.13,6.7,7,7.91,11.57a16.76,16.76,0,0,1-2.84,14.2c-3.69,4.82-10.05,7.15-16,6.86-2.35-.12-3.44-.05-4.77,1.82a22,22,0,0,1-5,4.78A29.15,29.15,0,0,1,362.88,267.08Z" style="fill:#BA68C8"></path><path d="M362.88,267.08a28.78,28.78,0,0,1-21.2-5.18c-7.46-5.64-9.77-13.26-12-21.93a105,105,0,0,0-7.23-19.55c-1-2-2.32-3.93-3.48-5.85-2-3.42.66-5.78,3.93-6.73A55.81,55.81,0,0,1,337.78,206a114.91,114.91,0,0,1,28.87,3.06,92.24,92.24,0,0,1,13.77,4.48c5.86,2.44,11.32,5,16.14,9.24,3.56,3.13,6.7,7,7.91,11.57a16.76,16.76,0,0,1-2.84,14.2c-3.69,4.82-10.05,7.15-16,6.86-2.35-.12-3.44-.05-4.77,1.82a22,22,0,0,1-5,4.78A29.15,29.15,0,0,1,362.88,267.08Z" style="fill:#fff;opacity:0.6000000000000001"></path><path d="M380.86,257.22c1.33-1.87,2.42-1.94,4.77-1.82,5.95.29,12.31-2,16-6.86a16.56,16.56,0,0,0,3.23-8.15,21.63,21.63,0,0,1-11.95,6.1c-8.3,1.26-16.88-2.18-23-7.92,3,5,3.19,12.31-1.31,16a13,13,0,0,1-7.7,2.57,22.78,22.78,0,0,1-9.42-1.57c-8.84-3.49-14.52-12-19.36-20.19-2.82-4.76-5.69-9.72-9.23-14A105.25,105.25,0,0,1,329.65,240c2.26,8.67,4.57,16.29,12,21.93a28.76,28.76,0,0,0,21.19,5.18,29.14,29.14,0,0,0,13-5.08A22,22,0,0,0,380.86,257.22Z" style="fill:#BA68C8;opacity:0.2"></path><path d="M405.35,337a246.37,246.37,0,0,0-6.06-39.51c-3.07-12.91-6.87-26.11-12.73-38.05a93.36,93.36,0,0,0-19.33-26.22,94.91,94.91,0,0,0-32.69-20.36c-.92-.33-.64,1.33,0,1.61a94.65,94.65,0,0,1,46.6,44.23c5.75,11.49,9.55,24.15,12.67,36.57a245.71,245.71,0,0,1,6.44,38.29c.63,7.08.93,14.19,1,21.3.06,7.34-.61,14.65-.69,22,0,1.87,3.66,2.65,4,.65,1.18-6.65,1.23-13.64,1.35-20.38S405.83,343.65,405.35,337Z" style="fill:#BA68C8"></path><path d="M405.35,337a246.37,246.37,0,0,0-6.06-39.51c-3.07-12.91-6.87-26.11-12.73-38.05a93.36,93.36,0,0,0-19.33-26.22,94.91,94.91,0,0,0-32.69-20.36c-.92-.33-.64,1.33,0,1.61a94.65,94.65,0,0,1,46.6,44.23c5.75,11.49,9.55,24.15,12.67,36.57a245.71,245.71,0,0,1,6.44,38.29c.63,7.08.93,14.19,1,21.3.06,7.34-.61,14.65-.69,22,0,1.87,3.66,2.65,4,.65,1.18-6.65,1.23-13.64,1.35-20.38S405.83,343.65,405.35,337Z" style="opacity:0.1"></path><path d="M355.3,292.71a25,25,0,0,0-7.71,2c-8,3.51-14,10.74-17.63,18.72-4.85,10.7-5.9,22.93-3.91,34.51a9.07,9.07,0,0,0,1.55,4.23c2.51,3.09,7.38.05,10.27-.88A114.12,114.12,0,0,1,355,347.37c11.34-1.81,22.86-2.7,34-5.67,4.46-1.19,8.94-2.78,12.52-5.7,6.6-5.38,7.14-14.21,2.39-21-3.53-5.05-9-8.28-14.74-10.21a73.36,73.36,0,0,0-9.23-2.11c-3.27-.65-5.38-2.32-7.75-4.59C367.75,293.85,361.44,292.16,355.3,292.71Z" style="fill:#BA68C8"></path><path d="M355.3,292.71a25,25,0,0,0-7.71,2c-8,3.51-14,10.74-17.63,18.72-4.85,10.7-5.9,22.93-3.91,34.51a9.07,9.07,0,0,0,1.55,4.23c2.51,3.09,7.38.05,10.27-.88A114.12,114.12,0,0,1,355,347.37c11.34-1.81,22.86-2.7,34-5.67,4.46-1.19,8.94-2.78,12.52-5.7,6.6-5.38,7.14-14.21,2.39-21-3.53-5.05-9-8.28-14.74-10.21a73.36,73.36,0,0,0-9.23-2.11c-3.27-.65-5.38-2.32-7.75-4.59C367.75,293.85,361.44,292.16,355.3,292.71Z" style="fill:#fff;opacity:0.6000000000000001"></path><path d="M389.15,304.78a73.36,73.36,0,0,0-9.23-2.11c-3.27-.65-5.38-2.32-7.75-4.59a21,21,0,0,0-14.52-5.47,7.13,7.13,0,0,1,2.7,3.76c.67,2.7-.85,5.42-2.42,7.72-2.65,3.86-5.76,7.38-8.56,11.14a51.94,51.94,0,0,0-3.82,5.81c-.69,1.25-2.83,4.49-2.37,5.92a17.13,17.13,0,0,0,1.65-1.65,45.8,45.8,0,0,1,20.39-12.54,33.68,33.68,0,0,1,17.32-.22c4.15,1.1,10.84,3.43,12,8.19.68,2.91-.93,5.89-3,8.06-5.45,5.76-13.71,7.65-21.44,9.42-9.15,2.09-18.3,4.41-27,8a79.41,79.41,0,0,0-13.53,7.13c2.6.6,6.05-1.38,8.29-2.11A114.12,114.12,0,0,1,355,347.37c11.34-1.81,22.86-2.7,34-5.67,4.46-1.19,8.94-2.78,12.52-5.7,6.6-5.38,7.14-14.21,2.39-21C400.36,309.94,394.89,306.71,389.15,304.78Z" style="fill:#BA68C8;opacity:0.2"></path><path d="M399.49,303.13a9,9,0,0,0-1.62-1.42c-5.69-4-14-4-20.54-2.59a39.73,39.73,0,0,0-9.17,3.19c-9.55,4.68-17.21,12.28-23.38,20.82a86.7,86.7,0,0,0-4.94,7.65,42,42,0,0,0-3.81,7.8c0,.12,0,.66.24.43a48.64,48.64,0,0,0,4-5.63c1.37-2,2.77-3.92,4.21-5.84a87.73,87.73,0,0,1,9.81-11.19c7.26-7,16.48-12.94,26.62-14.28,4.61-.61,10.61-.59,14.22,2.72.65.6,1.21,1.27,1.9,1.82a3.7,3.7,0,0,0,2.39.94.9.9,0,0,0,.36-.08.86.86,0,0,0,.3-.3C401.09,305.73,400.5,304.29,399.49,303.13Z" style="fill:#BA68C8"></path><path d="M399.49,303.13a9,9,0,0,0-1.62-1.42c-5.69-4-14-4-20.54-2.59a39.73,39.73,0,0,0-9.17,3.19c-9.55,4.68-17.21,12.28-23.38,20.82a86.7,86.7,0,0,0-4.94,7.65,42,42,0,0,0-3.81,7.8c0,.12,0,.66.24.43a48.64,48.64,0,0,0,4-5.63c1.37-2,2.77-3.92,4.21-5.84a87.73,87.73,0,0,1,9.81-11.19c7.26-7,16.48-12.94,26.62-14.28,4.61-.61,10.61-.59,14.22,2.72.65.6,1.21,1.27,1.9,1.82a3.7,3.7,0,0,0,2.39.94.9.9,0,0,0,.36-.08.86.86,0,0,0,.3-.3C401.09,305.73,400.5,304.29,399.49,303.13Z" style="opacity:0.1"></path><path d="M383.91,360l-.05-.1a45.92,45.92,0,0,1,12.48,12.06,23.23,23.23,0,0,0-.5-4.7c-.28-1.3-1-2.25-1.34-3.47a29.4,29.4,0,0,1,9.37,9.07,30.2,30.2,0,0,1,10.8-14.92l-2.16,13.28a52,52,0,0,1,8.45-4.52,26.29,26.29,0,0,0-3.33,7.43c-.62,2.29-1,4.8-2.6,6.56a10,10,0,0,1-5.56,2.62,26.7,26.7,0,0,1-14.87-1.07c-2.68-1.06-3.26-3-3.77-5.65C389.73,370.63,386.81,365.24,383.91,360Z" style="fill:#BA68C8"></path><path d="M383.91,360l-.05-.1a45.92,45.92,0,0,1,12.48,12.06,23.23,23.23,0,0,0-.5-4.7c-.28-1.3-1-2.25-1.34-3.47a29.4,29.4,0,0,1,9.37,9.07,30.2,30.2,0,0,1,10.8-14.92l-2.16,13.28a52,52,0,0,1,8.45-4.52,26.29,26.29,0,0,0-3.33,7.43c-.62,2.29-1,4.8-2.6,6.56a10,10,0,0,1-5.56,2.62,26.7,26.7,0,0,1-14.87-1.07c-2.68-1.06-3.26-3-3.77-5.65C389.73,370.63,386.81,365.24,383.91,360Z" style="fill:#fff;opacity:0.5"></path></g></g><g id="freepik--Ladybug--inject-106"><g id="freepik--ladybug--inject-106"><ellipse cx="339.93" cy="208.52" rx="15.12" ry="8.91" transform="translate(-31.03 62.17) rotate(-10)" style="fill:#37474f"></ellipse><path d="M354.71,205.38c0-.07,0-.13,0-.2a3.71,3.71,0,0,0,0-.47c-.42-6.62-7.12-10.61-15.23-9.39s-13.36,8-13.55,14.22v.07c0,.09,0,.18,0,.28h0a5,5,0,0,0,2.87,4.38c4.78,2.76,13.82,2,20.19-1.67,3.71-2.14,5.69-4.81,5.75-7.21Z" style="fill:#455a64"></path><path d="M328.76,214.26c0-4.74,3.91-10.72,9.33-14.4a19.75,19.75,0,0,1,10.09-3.67s-2.45-2.08-8.9-1.2a15.85,15.85,0,0,0-13.13,11.39C324.7,212.28,327.19,213.53,328.76,214.26Z" style="fill:#BA68C8"></path><path d="M342.35,194.77a1,1,0,0,0-.09.13,1.2,1.2,0,0,0-.12.8,1.85,1.85,0,0,0,1,1.19,3.59,3.59,0,0,0,.51.2,15.94,15.94,0,0,1,4.54-.9S346.52,194.79,342.35,194.77Z" style="fill:#37474f"></path><path d="M330.08,199.58a3.15,3.15,0,0,0,2.87.19,4.2,4.2,0,0,0,1.23-.74,2.69,2.69,0,0,0,1.16-1.84,1.93,1.93,0,0,0-.28-1A16.59,16.59,0,0,0,330.08,199.58Z" style="fill:#37474f"></path><path d="M334,202.92a1.82,1.82,0,0,0-1.37-.48,2.16,2.16,0,0,0-1.82,1.68,3.36,3.36,0,0,0,.58,2.53,23.93,23.93,0,0,1,2.8-3.49A1.55,1.55,0,0,0,334,202.92Z" style="fill:#37474f"></path><path d="M328.76,214.26c.37-4.63,5.13-11.57,12.12-14.38s10.06-2.36,10.06-2.36a10.17,10.17,0,0,1,3.52,4.63,8.19,8.19,0,0,1,.53,3.19,7.58,7.58,0,0,1-2.72,5.09,22.84,22.84,0,0,1-15.89,5.7C330.55,216.06,328.76,214.26,328.76,214.26Z" style="fill:#BA68C8"></path><path d="M351.56,198a34.09,34.09,0,0,1,.25,3.77,12,12,0,0,1-3.88,8.24,17.09,17.09,0,0,1-8.28,4.09,29,29,0,0,1-9.3.18l-1.57-.2s0,.11,0,.17,1.79,1.8,7.62,1.87a22.84,22.84,0,0,0,15.89-5.7,7.58,7.58,0,0,0,2.72-5.09,8.39,8.39,0,0,0-.53-3.19A9.88,9.88,0,0,0,351.56,198Z" style="opacity:0.2"></path><path d="M349.61,200.55a2.12,2.12,0,0,0-3,1.77,3.36,3.36,0,0,0,1.78,3.2,3.18,3.18,0,0,0,1.92.47,2.15,2.15,0,0,0,1.64-1C353,203.08,351.27,201.16,349.61,200.55Z" style="fill:#37474f"></path><path d="M337.74,211.11a5.74,5.74,0,0,0,2.4.38,5.5,5.5,0,0,0,2.06-.33,2.26,2.26,0,0,0,1.38-1.48,2.58,2.58,0,0,0-.82-2.3,4.25,4.25,0,0,0-5.07-.48,2.54,2.54,0,0,0-1.44,2.4A2.48,2.48,0,0,0,337.74,211.11Z" style="fill:#37474f"></path><path d="M337.4,201.72a1.75,1.75,0,0,0,.2.65c.86,1.49,3.26.68,4.17-.27a2.46,2.46,0,0,0,.69-1.21,1.41,1.41,0,0,0-.37-1.3l-.16-.11-1.05.4A20.62,20.62,0,0,0,337.4,201.72Z" style="fill:#37474f"></path><path id="freepik--sphere-12--inject-106" d="M334.11,214.09a2.85,2.85,0,0,1-1.68,2.34,9,9,0,0,1-8.09,0,2.84,2.84,0,0,1-1.67-2.34,5.72,5.72,0,0,1,11.44,0Z" style="fill:#37474f"></path><path d="M324.92,211a9,9,0,0,0-1.05-3.2c-1.09-2-3.06-4-5.38-4.4a2.25,2.25,0,0,0-2.6,1.91c-.13,1,.65,2.58,1.84,2.44.28,0,.2-.54,0-.63-.53-.24-1.09-.57-1.2-1.19a1.35,1.35,0,0,1,.81-1.36,2.3,2.3,0,0,1,2,.3,9.12,9.12,0,0,1,1.51.95,7.87,7.87,0,0,1,2.88,5.38c0,.48.05,1.62.68,1.73C325.16,213,325,211.39,324.92,211Z" style="fill:#263238"></path><path d="M329,212.7a9.14,9.14,0,0,0,1-3.23,8.43,8.43,0,0,0-1.9-6.68,2.25,2.25,0,0,0-3.22.08c-.68.75-.95,2.49.11,3.06.25.14.47-.33.36-.52a1.79,1.79,0,0,1-.3-1.66,1.34,1.34,0,0,1,1.44-.65,2.33,2.33,0,0,1,1.43,1.35,9.14,9.14,0,0,1,.69,1.65,7.78,7.78,0,0,1-.71,6.06c-.24.42-.88,1.36-.43,1.81S328.77,213.08,329,212.7Z" style="fill:#263238"></path><path d="M337.47,203.06a7.83,7.83,0,0,0-2.91,3.41,4.79,4.79,0,0,0,.28,4.36,1.24,1.24,0,0,0,.38.41,1.15,1.15,0,0,0,.55.14,4.7,4.7,0,0,0,2.86-1.13,27.25,27.25,0,0,0,4.13-3.35,12.51,12.51,0,0,0,2.91-4.42,1.61,1.61,0,0,0,.13-.89,1.36,1.36,0,0,0-.86-.84C342.66,199.8,339.28,201.8,337.47,203.06Z" style="fill:#fff;opacity:0.1"></path><path d="M332.09,202.78a.74.74,0,0,0,0,.26.39.39,0,0,0,.42.2A1,1,0,0,0,333,203a32.11,32.11,0,0,0,3.27-2.77,18.85,18.85,0,0,1,3.79-2.44c.88-.47,1.79-.89,2.63-1.44a.88.88,0,0,0,.44-.49c.17-.67-1.73-.53-2.13-.51a10.75,10.75,0,0,0-3,.55A8.16,8.16,0,0,0,332.09,202.78Z" style="fill:#fff;opacity:0.1"></path></g></g><g id="freepik--Character--inject-106"><g id="freepik--Child--inject-106"><g id="freepik--Bottom--inject-106"><path d="M62.28,350.82c4-1.91,44.1-.85,48.17,2.46,4.88,4,53.49,21.72,53.49,21.72l37.29,33.84c-15.67,4-42.8.28-64.15-10.87-12.64-6.61-23.3-15.29-34.36-23.14-6-4.25-10.62-7.22-13.28-8.12-8.13-2.77-20.63-7.66-30.42-12.18C59,354.53,58.33,352.72,62.28,350.82Z" style="fill:#ffa8a7"></path><path d="M49.24,348.08c-1.89-2.53,5.68-11.41,16.39-12.62,8.43-.95,12.28.59,18.24,1.42,5.73.81,14.69-3,19.69-3.84,10.36-1.67,12,4.72,11.28,8.1s-1.84,7.25-8.9,9.77S65.1,352.86,49.24,348.08Z" style="fill:#37474f"></path><path d="M117.47,357.3c-3.56,6.11-11.82,4.3-18.79,3-6.54-1.24-30.41-7.63-33.56-2.95-6.5-2.5-12.9-6.09-15.88-9.25,0,0,1.72-6.58,15.22-3.34,8.83,2.12,25,3.23,30,2.61,6.54-.81,15.42-6.73,22.21-4C119.57,347.41,118.37,351.38,117.47,357.3Z" style="fill:#BA68C8"></path><path d="M255,358.24c-1.63-11-12.19-25.16-22.48-35.05C218.76,310,190,288.46,190,288.46l-.54,2.59h0l-79-16.16c-5.13,10.48-11.16,32-11.18,47.27,0,14.21,2.16,31.3,27,49.75,15.08,11.19,21.3,19.19,32.64,25.13,12.3,6.44,29,17,46.6,10.57,10.14-3.71,16.82-9.94,16.9-21.29h0c2,1.22,14.35,3.42,22.7-1.3C252.84,380.64,256.69,369.67,255,358.24Z" style="fill:#ffa8a7"></path><path d="M227.52,387.59a17,17,0,0,1-5.1-1.28c-3.06-19.14-22.6-33.31-50.3-55.78,3.25-5.42,5.17-13.36,5.17-13.36-1,4.62,2.64,8.67,1.2,12,6.17,5.53,23,16,32.9,27.39C218,364.15,226.56,373.69,227.52,387.59Z" style="fill:#f28f8f"></path><path d="M169,394.11c-9.89.93-29.25-5.7-40.65-15.67-3.63-3.18-12.91-10.91-17.67-20.43-1.37-2.72,34.39,24.38,34.39,24.38S157.88,391,169,394.11Z" style="fill:#f28f8f"></path><path d="M101.15,286.31l93.48,5.49s30.79,21.34,46.39,40.54c0,0-15-.58-28.1,7.51C201.48,346.92,198,352,198,352a44.11,44.11,0,0,0-31.13,3.15c-20.42,10.13-21.73,27.22-21.73,27.22S114.37,364,106.87,353.85C93.83,336.28,97,300.88,101.15,286.31Z" style="fill:#455a64"></path><path d="M192.65,317.92s0,9.78-6.34,15.94l15.9,13.77c-2,1.88-4.25,4.39-4.25,4.39-8.17-8.21-22-18.16-22-18.16S188,328.66,192.65,317.92Z" style="fill:#37474f"></path></g><g id="freepik--Top--inject-106"><g id="freepik--Arm--inject-106"><g id="freepik--arm--inject-106"><path d="M275.7,228.16a14.94,14.94,0,0,0-2.44-3.45,1.13,1.13,0,0,1-.25-.5.69.69,0,0,1,.1-.49c2.29-3,6.62-7.95,10-11.62,1.72-1.88,4.61-5.09,3.21-8a2.5,2.5,0,0,0-2.53-1.23A6.33,6.33,0,0,0,281,204a61.8,61.8,0,0,0-8.64,7.12l-7.2,6.7a130.12,130.12,0,0,0-12.25,12.49c-1.76,2.15-4,.64-5.17,3.13-1.95,4-1.93,5.19-5.62,8.38-3.34,2.88-18,15.12-18,15.12s-3.25-8.78-6.94-17.57c-11.19-26.65-14.53-34.94-32.85-38l-5.12,37.43s7.1,14.12,17.51,33.94c9.67,18.4,18.58,28.37,29.7,21.94,5.16-3,9.36-8.85,16.5-17.73,7.57-9.4,9.87-13.12,15-18.65,2.42-2.61,3.66-2,7.8-3.63a45.62,45.62,0,0,0,9.36-4.68,11.41,11.41,0,0,0,4.45-5.21c.68-1.45-3.45-7.16-3.72-8.73-.39-2.36.57-4.8.09-7.14A5.62,5.62,0,0,0,275.7,228.16Z" style="fill:#ffa8a7"></path><path d="M265,230.27c0-.6-.05-1.2-.1-1.8v-.07c-.42.48-.8,1-1.18,1.49s-.22,1.33-.22,2,0,1.58-.07,2.37a22.21,22.21,0,0,1-.83,4.66,18.4,18.4,0,0,1-5.64,8.48c-.1.09-.14.51.08.4a14.24,14.24,0,0,0,6.64-8.24A25.66,25.66,0,0,0,265,230.27Z" style="fill:#f28f8f"></path><path d="M224.15,256.91s-10.26,5.26-13,13.32c0,0-1.38-9.71,11.26-16.79Z" style="fill:#f28f8f"></path></g><g id="freepik--Glass--inject-106"><path d="M268.6,245.88h0l10.14-30.93h0v0h0a2.16,2.16,0,0,0-.58-2.07,6.8,6.8,0,0,0-5.76-2.12,2.14,2.14,0,0,0-1.8,1.22L258,241.84h0a5.68,5.68,0,1,0,10.62,4Z" style="fill:#455a64"></path><path d="M270.61,211.93,258,241.84a5.67,5.67,0,0,0,5.82,7.83c-1.91-.11-4-2.9-2.51-7s10.06-25,12.66-32a5.28,5.28,0,0,0-1.54,0A2.14,2.14,0,0,0,270.61,211.93Z" style="fill:#37474f"></path><path d="M278.16,212.83a6.77,6.77,0,0,0-5.76-2.12,2.15,2.15,0,0,0-1.77,1.17l-1.06,2.45a2.19,2.19,0,0,0,.57,2.24,7,7,0,0,0,5.94,2.18,2.19,2.19,0,0,0,1.88-1.32l.8-2.53A2.16,2.16,0,0,0,278.16,212.83Z" style="fill:#BA68C8"></path><path d="M278.16,212.83c1.25,1.5.71,3-1.22,3.32a6.77,6.77,0,0,1-5.76-2.12c-1.25-1.5-.7-3,1.22-3.32A6.77,6.77,0,0,1,278.16,212.83Z" style="fill:#BA68C8"></path><path d="M278.16,212.83c1.25,1.5.71,3-1.22,3.32a6.77,6.77,0,0,1-5.76-2.12c-1.25-1.5-.7-3,1.22-3.32A6.77,6.77,0,0,1,278.16,212.83Z" style="fill:#fff;opacity:0.30000000000000004"></path><path d="M277.8,199.5a4.49,4.49,0,0,1,3.82,1.41,1.45,1.45,0,0,1,.38,1.39h0l-4.43,11.86h0a1.43,1.43,0,0,1-1.2.8,4.47,4.47,0,0,1-3.81-1.41,1.42,1.42,0,0,1-.38-1.39h0l4.43-11.85h0A1.41,1.41,0,0,1,277.8,199.5Z" style="fill:#37474f"></path><path d="M276.61,200.32a1.41,1.41,0,0,1,1.19-.82,4,4,0,0,1,1.56.09l-5.57,14.91a3.66,3.66,0,0,1-1.23-.94,1.42,1.42,0,0,1-.38-1.39l4.43-11.85Z" style="fill:#263238"></path><path d="M282.38,203.37c4.59,2,10.54,1.07,16.75-3.43,12.43-9,21.22-28.67,19.64-43.94-.79-7.63-4-12.72-8.61-14.77h0l-8.46-3.78c-4.59-2-10.54-1.07-16.75,3.43-12.43,9-21.23,28.68-19.64,43.94.79,7.63,4,12.72,8.61,14.77l8.46,3.78Zm33.12-47c.7,6.82-.82,14.86-4.3,22.64s-8.45,14.28-14,18.3c-5,3.63-9.81,4.73-13.48,3.09s-6.05-5.94-6.68-12.11c-.71-6.81.82-14.85,4.29-22.63s8.45-14.28,14-18.3c5-3.64,9.81-4.73,13.48-3.09S314.86,150.18,315.5,156.34Z" style="fill:#BA68C8"></path><path d="M282.38,203.37c4.59,2,10.54,1.07,16.75-3.43,12.43-9,21.22-28.67,19.64-43.94-.79-7.63-4-12.72-8.61-14.77h0l-8.46-3.78c-4.59-2-10.54-1.07-16.75,3.43-12.43,9-21.23,28.68-19.64,43.94.79,7.63,4,12.72,8.61,14.77l8.46,3.78Zm33.12-47c.7,6.82-.82,14.86-4.3,22.64s-8.45,14.28-14,18.3c-5,3.63-9.81,4.73-13.48,3.09s-6.05-5.94-6.68-12.11c-.71-6.81.82-14.85,4.29-22.63s8.45-14.28,14-18.3c5-3.64,9.81-4.73,13.48-3.09S314.86,150.18,315.5,156.34Z" style="fill:#fff;opacity:0.30000000000000004"></path><path d="M312.79,147.77a9.25,9.25,0,0,0-4-3.53c-3.67-1.65-8.46-.55-13.48,3.09a37.1,37.1,0,0,0-6.62,6.29l-11.56-5.16a40.67,40.67,0,0,1,7.8-7.58c6.21-4.5,12.16-5.48,16.75-3.43l8.46,3.78a12.64,12.64,0,0,1,5.37,4.74Z" style="fill:#BA68C8;opacity:0.4"></path><path d="M282.38,203.37h0l-8.46-3.78c-4.59-2.05-7.82-7.14-8.61-14.77a36.41,36.41,0,0,1-.08-6.45l11.67,5.16a33.48,33.48,0,0,0,.14,4.73c.63,6.17,3,10.47,6.68,12.11a9,9,0,0,0,4,.73l.92,3.22A12.29,12.29,0,0,1,282.38,203.37Z" style="fill:#fff;opacity:0.30000000000000004"></path><path d="M293.4,144.66c-12.42,9-21.22,28.67-19.64,43.94s12.94,20.34,25.37,11.34,21.22-28.67,19.64-43.94S305.83,135.66,293.4,144.66Zm15.41-.43c3.68,1.65,6.05,6,6.69,12.11.71,6.82-.82,14.86-4.3,22.64s-8.45,14.27-14,18.29c-5,3.64-9.81,4.74-13.48,3.1s-6.05-6-6.68-12.11c-.71-6.82.82-14.86,4.29-22.64s8.45-14.27,14-18.29C300.35,143.69,305.14,142.59,308.81,144.23Z" style="fill:#BA68C8"></path><g style="opacity:0.5"><path d="M293.4,144.66c-12.42,9-21.22,28.67-19.64,43.94s12.94,20.34,25.37,11.34,21.22-28.67,19.64-43.94S305.83,135.66,293.4,144.66Zm15.41-.43c3.68,1.65,6.05,6,6.69,12.11.71,6.82-.82,14.86-4.3,22.64s-8.45,14.27-14,18.29c-5,3.64-9.81,4.74-13.48,3.1s-6.05-6-6.68-12.11c-.71-6.82.82-14.86,4.29-22.64s8.45-14.27,14-18.29C300.35,143.69,305.14,142.59,308.81,144.23Z" style="fill:#fff"></path></g><path d="M292.46,203.56a15.06,15.06,0,0,1-7.53.74,12,12,0,0,1-6.61-3.68,17.54,17.54,0,0,1-3.7-6.67,29.68,29.68,0,0,1-.87-3.73c-.09-.63-.18-1.26-.23-1.9l-.12-1.91a17.36,17.36,0,0,1,0-1.91c0-.63,0-1.27,0-1.91l.17-1.9.09-.95c0-.32.09-.63.14-1a56.13,56.13,0,0,1,12.31-27.55c.2-.24.4-.5.61-.73l.65-.7,1.31-1.4c.45-.44.93-.87,1.39-1.3a17.08,17.08,0,0,1,1.44-1.26l1.51-1.19c.5-.39,1-.74,1.57-1.09a28.68,28.68,0,0,1,3.35-1.84A17.71,17.71,0,0,1,305.4,140a12,12,0,0,1,7.15,2.47,15,15,0,0,1,4.47,6.11,25.72,25.72,0,0,1,1.75,7.38,25.43,25.43,0,0,0-1.87-7.33,14.73,14.73,0,0,0-4.51-5.95,11.6,11.6,0,0,0-7-2.34,17.16,17.16,0,0,0-7.26,1.72,29.32,29.32,0,0,0-6.31,4.1,18.52,18.52,0,0,0-1.41,1.25c-.46.43-.93.85-1.38,1.29l-1.29,1.39-.64.69c-.21.24-.4.49-.6.73a57,57,0,0,0-12.21,27.31c0,.31-.11.62-.14.93l-.09,1-.18,1.88c0,.63,0,1.26,0,1.89a16.82,16.82,0,0,0,0,1.88,28.78,28.78,0,0,0,1.15,7.44,17.07,17.07,0,0,0,3.56,6.56A11.55,11.55,0,0,0,285,204a14.83,14.83,0,0,0,7.44-.6,25.85,25.85,0,0,0,6.71-3.5A26,26,0,0,1,292.46,203.56Z" style="fill:#fff;opacity:0.4"></path><path d="M308.82,144.23a9.18,9.18,0,0,0-4.78-.67,18.52,18.52,0,0,1,3,9c.71,6.81-.82,14.86-4.29,22.64s-8.46,14.28-14,18.29a18.64,18.64,0,0,1-8.71,3.78,9.32,9.32,0,0,0,3.69,3.1c3.67,1.64,8.46.54,13.48-3.1,5.55-4,10.52-10.51,14-18.29s5-15.83,4.3-22.64C314.86,150.17,312.49,145.87,308.82,144.23Z" style="fill:#BA68C8"></path><path d="M308.82,144.23a9.18,9.18,0,0,0-4.78-.67,18.52,18.52,0,0,1,3,9c.71,6.81-.82,14.86-4.29,22.64s-8.46,14.28-14,18.29a18.64,18.64,0,0,1-8.71,3.78,9.32,9.32,0,0,0,3.69,3.1c3.67,1.64,8.46.54,13.48-3.1,5.55-4,10.52-10.51,14-18.29s5-15.83,4.3-22.64C314.86,150.17,312.49,145.87,308.82,144.23Z" style="fill:#fff;opacity:0.30000000000000004"></path><path d="M297.2,197.27c-5,3.64-9.81,4.74-13.48,3.1a9.32,9.32,0,0,1-3.69-3.1,18.64,18.64,0,0,0,8.71-3.78,33.3,33.3,0,0,0,3.65-3.08c-1,1-3.78,4.09.27,4.32,4.83.26,12.72-5.43,16-10.75h0A42.52,42.52,0,0,1,297.2,197.27Z" style="fill:#BA68C8;opacity:0.4"></path><path d="M311.67,154.63c.71,6.81-.82,14.85-4.3,22.63s-8.45,14.28-14,18.3c-4.14,3-8.12,4.27-11.45,3.7-2.65-2.1-4.36-5.91-4.88-11-.71-6.82.82-14.86,4.29-22.64s8.45-14.27,14-18.29c4.14-3,8.12-4.27,11.45-3.7C309.43,145.73,311.14,149.54,311.67,154.63Z" style="fill:#fff;opacity:0.7000000000000001"></path></g><g id="freepik--Fingers--inject-106"><path d="M258.33,222.05c1.8-1.26,3.69-2.73,5.5-3.88s3.35-2.52,5.29-3.74a3.64,3.64,0,0,1,2.34-.22,2.13,2.13,0,0,1,1.19,1.68,6.83,6.83,0,0,1-.81,3.64,17,17,0,0,1-2.91,4.53c-2.21,2.58-4.63,5-6.65,7.74-3.26,4.45-17,7-17,7,1.44-3.3,2.59-5.57,4.07-8.84a11.3,11.3,0,0,1,2.63-3.6,24.76,24.76,0,0,1,3.45-2.42C256.36,223.35,257.42,222.69,258.33,222.05Z" style="fill:#ffa8a7"></path><path d="M263.83,218.17c2.05-1.51,3.6-3,5.73-4.42,1.55-1.12,3.53,1,3.52,2.52a11.64,11.64,0,0,1-1.19,4.2,21,21,0,0,1-3.59,4.93c-.71.77-1.45,1.51-2.19,2.25-.22.23-1.93,2.11-2.11,1.89s1.69-2.26,2-2.56c2.72-3.11,5.81-6.38,6.33-10.68,0-1-1.24-2.69-2.4-2C267.74,215.61,266.06,217,263.83,218.17Z" style="fill:#f28f8f"></path><path d="M263.92,229.17a5.32,5.32,0,0,1-2.2.62,11.39,11.39,0,0,1-2.59-.36c-.09,0-.19.18-.09.22l.36.15a7.17,7.17,0,0,0,2.76.63,4.34,4.34,0,0,0,1.34-.24c.2-.07.32-.28.45-.44s.35-.43.54-.62.15-.16.21-.25.11-.23.17-.27C264.57,228.8,264.25,229,263.92,229.17Z" style="fill:#f28f8f"></path><path d="M280.84,229.32c-1.51-.11-2.92,1.06-4.35,1.5a32.19,32.19,0,0,0-4.46,2.07,12.1,12.1,0,0,0-2.15,1.55A41,41,0,0,0,265,239a2.76,2.76,0,0,0-.9,2.08,1.93,1.93,0,0,0,.54,1,3.64,3.64,0,0,0,3.05.92,9,9,0,0,0,3.07-1.15,17.73,17.73,0,0,1,3-1.45c1.16-.38,2.41-.46,3.61-.73a8,8,0,0,0,5.17-3.72c.94-1.68,1.41-6-1-6.55A4.13,4.13,0,0,0,280.84,229.32Z" style="fill:#ffa8a7"></path><path d="M276.49,230.82a17.3,17.3,0,0,0-7,4.24c-1.75,1.68-4.07,3.23-5.09,5.46a1.42,1.42,0,0,0,.48,1.45c1.4,1.31,3.49.82,5.1,0a15.91,15.91,0,0,1,7.32-2.3,17.75,17.75,0,0,0-7.11,2.72c-1.66,1-4.14,1.45-5.72,0a2,2,0,0,1-.67-2c1.1-2.43,3.46-3.94,5.39-5.66a15.92,15.92,0,0,1,7.29-3.88Z" style="fill:#f28f8f"></path><path d="M276.42,222.68a33.74,33.74,0,0,0-3.71,1.85,10.6,10.6,0,0,0-4.45,5.55,2.37,2.37,0,0,0-.06,1.15,2,2,0,0,0,1.05,1.13,6.14,6.14,0,0,0,5.28.13A29.91,29.91,0,0,0,279,230.6a15.73,15.73,0,0,0,3.63-2.21,4,4,0,0,0,.92-3.49,6.64,6.64,0,0,0-1.73-2.91,3,3,0,0,0-2.84-.37A13.23,13.23,0,0,0,276.42,222.68Z" style="fill:#ffa8a7"></path><path d="M276.42,222.68a22.25,22.25,0,0,0-7.16,5.92,3.72,3.72,0,0,0-.76,2.56c.83,1.65,3.28,1.78,4.93,1.41a34.9,34.9,0,0,0,5.58-2,24.65,24.65,0,0,1-5.47,2.43c-2.2.77-6.78-.19-5.46-3.36,1.36-3.4,5.17-5.73,8.34-7Z" style="fill:#f28f8f"></path><path d="M275.18,239.1c-1.83.5-3.93,2-5.58,3a22.73,22.73,0,0,0-2.46,1.57,13.45,13.45,0,0,0-2.24,1.81c-1.11,1.22,0,2.33,1.18,2.83,1.73.73,3.84.23,5.55-.35.59-.2,1.17-.44,1.77-.61,1.8-.52,3.55-.55,5.16-1.59a4.82,4.82,0,0,0,1.95-3,7.6,7.6,0,0,0,.37-2.47,2.51,2.51,0,0,0-2.18-1.74,5.59,5.59,0,0,0-1.35.1C276.62,238.73,275.9,238.9,275.18,239.1Z" style="fill:#ffa8a7"></path><path d="M277.35,238.6c-3.74.83-7.46,3.32-10.52,5.58-1.47,1-3.3,2.42-.91,3.68,1.67.86,3.6.42,5.35-.08,2.34-1,5-.88,7.29-2.07a9.53,9.53,0,0,1-3.55,1.36c-3.05.63-6.21,2.84-9.36,1.32-2.84-1.51-1.14-3.42.86-4.66,3.1-2.25,7-4.65,10.84-5.13Z" style="fill:#f28f8f"></path></g></g><g id="freepik--Chest--inject-106"><path d="M123.8,203c-2.82,2-13.14,7.83-16.62,22.06-5.19,21.27-8,49.47-10.6,90.12,38.24,16.34,86.27,12.17,106.74-16.74,0,0-.72-8.88-4.69-23.58,1.49-11.68,4.09-21.06,4.69-35.95.51-12.82-1.25-33.34-19-37.55-13.34-3.17-28.05-2.72-40.14-1.33C130.31,201.64,123.8,203,123.8,203Z" style="fill:#BA68C8"></path><path d="M121.6,106.82c-6,2.78-10.29,8.12-13.23,14.08a41.33,41.33,0,0,0-3.59,12.79c-.49,3.68-.7,7.46-2,10.92a17.86,17.86,0,0,1-7.43,8.83c-1.95,1.17-4.42,2.34-4.69,4.6s2.15,4.21,4.45,4.89a15,15,0,0,0,9.4-.3,16.46,16.46,0,0,0-3.07,8.29,9.21,9.21,0,0,0,3.46,7.87c2.82,2,6.78,1.81,9.94.35.11,3.05,3.83,4.5,6.88,4.64a21.61,21.61,0,0,0,9.85-2,24.09,24.09,0,0,0,7.43-5.68c5.27-7.24,8.21-13.22,11.71-25a84.52,84.52,0,0,0,2.57-35.71c-.57-3.88-6.89-9-12.77-10.45A27.27,27.27,0,0,0,121.6,106.82Z" style="fill:#263238"></path><path d="M135.67,108.85c-5.15,2-9.6,7.15-8.37,12.72a4.47,4.47,0,0,0,3.82,3.18,8.27,8.27,0,0,0,5.06-1.21,18.6,18.6,0,0,0,6.7-7.16c1.64-3.08,2.14-8.21-2.51-8.38A11.86,11.86,0,0,0,135.67,108.85Z" style="fill:#BA68C8"></path><path d="M142.79,189.27C137,176.85,127.56,168,124.2,151.34c-3.77-18.7,2.18-28.45,12.91-33.29,0,0,1.83-13.35,18.62-19.09,13.24-4.53,32.57-1.15,43.82,7,6.12,4.42,11.21,9.77,13.88,16.82,2.78,7.36,3.33,17.5.6,25-2,5.42-6.28,9.72-11.17,12.58s-10.38,4.4-15.85,5.6c-3.41.74-6.84,1.37-10.24,2.14a26.12,26.12,0,0,0-5.25,1.35,18.43,18.43,0,0,0-3.13,2.57q-9,7.31-17.93,14.59C149.09,187.64,144.2,189.4,142.79,189.27Z" style="fill:#263238"></path><path d="M145,157.89a2.34,2.34,0,0,1-.49.33c-2.58,1.33-2.12-2.9-4.24-5.95a6.36,6.36,0,0,0-5-2.58c-3.91-.16-6.4,1.22-8,3.93-2.94,4.88-1,13.07,5.59,16.13a9.64,9.64,0,0,0,10.55-1.07l-3.55,32.75s3.78,9.62,22.35,13.22c16.82,3.27,20.35-2.65,14.07-10l1-8.93s7.11.85,12.65-.58c11.77-3.06,15.89-12.32,17.29-17.2,1.72-6,.38-11.58,1-17.75.37-3.67,1.26-8.85,1.53-11.1a26.93,26.93,0,0,0,.2-6.19,18.63,18.63,0,0,1-14-9.57,8.42,8.42,0,0,0-.24,5.93c-5.62,1.49-11.72-.25-16.59-3.43s-8.7-7.69-12.35-12.22c-2.88.59-3.95,4-4.89,6.84a41.41,41.41,0,0,1-6.18,11.22,26.21,26.21,0,0,1-4,4.33c-.43.37-4.74,3-4.73,3.12a14.51,14.51,0,0,1-.81,6.88A4.71,4.71,0,0,1,145,157.89Z" style="fill:#ffa8a7"></path><path d="M157.07,158.84c.07,2.67,3,4.77,6.5,4.68s6.31-2.33,6.24-5-3-4.77-6.49-4.68S157,156.17,157.07,158.84Z" style="fill:#f28f8f"></path><path d="M200.5,161.7c-.31,2.65,2.27,5.13,5.77,5.54s6.58-1.41,6.89-4.07-2.28-5.13-5.77-5.54S200.81,159,200.5,161.7Z" style="fill:#f28f8f"></path><path d="M172.78,144.41l-8.63,4a5,5,0,0,1,2.39-6.49A4.65,4.65,0,0,1,172.78,144.41Z" style="fill:#263238"></path><path d="M167,154a3.91,3.91,0,1,0,4.24-3.54A3.91,3.91,0,0,0,167,154Z" style="fill:#263238"></path><path d="M195.9,156.27a3.91,3.91,0,1,0,4.25-3.54A3.91,3.91,0,0,0,195.9,156.27Z" style="fill:#263238"></path><path d="M207.51,151.7l-7.91-5.43a4.62,4.62,0,0,1,6.55-1.37A5,5,0,0,1,207.51,151.7Z" style="fill:#263238"></path><polygon points="183.6 147.21 184.21 166.04 194.87 162.44 183.6 147.21" style="fill:#f28f8f"></polygon><path d="M180.85,172.9a12,12,0,0,0,4.88.71,2.55,2.55,0,0,1,2.29.76c.54.76.33,1.73-.31,2.84-1.21,2.07-4.77,3.9-8.66,2.82a7.37,7.37,0,0,1-5.64-7.42c.05-.75.23-1.85,1.08-2.26a2.27,2.27,0,0,1,2.64.19A15.82,15.82,0,0,0,180.85,172.9Z" style="fill:#b16668"></path><path d="M182.73,180.24a11.28,11.28,0,0,0-9.31-7.68v.05a7.37,7.37,0,0,0,5.64,7.42A8.62,8.62,0,0,0,182.73,180.24Z" style="fill:#f28f8f"></path><path d="M177.21,195.73c-8.08-1.32-13.87-2.37-22.56-9.29a24.52,24.52,0,0,1-7.47-11.82s.82,9.27,4,13.54c8.4,11.18,25.48,12.07,25.48,12.07Z" style="fill:#f28f8f"></path><path d="M169.82,180.71h0C169.72,180.72,169.66,180.73,169.82,180.71Z" style="fill:#b16668"></path></g><path d="M123.8,203c-20.44,2.6-26,9.58-32.23,22.35C82.71,243.52,76.7,255.6,70.7,270.85c-4,10.13-5.21,14,5.83,26.09,6.44,7.07,11.58,11.6,21,19.16,7.9,6.33,15.88,12.62,24.65,17.7,7.84,4.53,17.91,9.24,27.26,7.35l2.68-.54a12.65,12.65,0,0,0,3.67-1.15,4.16,4.16,0,0,0,2.24-2.92c2.08-.26,4.09-.61,5.69-2.12a10.51,10.51,0,0,1,1.31-1.19,5.48,5.48,0,0,1,3.2-.65,9.36,9.36,0,0,0,3.3-.26,2.57,2.57,0,0,0,1.85-2.46,3.54,3.54,0,0,0-1.79-2.28c-4.79-3.31-9.87-4.46-15.22-6.37-1.06-.38-11.49-3.71-10.69-5.5.2-.46.8-.57,1.3-.59,1.84-.06,3.69.18,5.52,0s3.91-.81,4.88-2.47c.78-1.34.68-2.74-1-3.2-5.54-1.53-10.95-3.34-16.75-3.33-5.25,0-10.28,1.78-15.32-.7-3.84-1.89-7-5.31-11.2-11.06-3.16-4.29-10-15.23-10-15.23s11.56-22,17.18-33.4S128,216.33,123.8,203Z" style="fill:#ffa8a7"></path><path d="M103.18,279.15c-7.11,6.37-19.21,5-19.21,5a22.67,22.67,0,0,0,20.88-2.38Z" style="fill:#f28f8f"></path></g></g></g><g id="freepik--speech-bubble--inject-106"><g id="freepik--speech-bubble--inject-106"><g id="freepik--speech-bubble--inject-106"><path d="M420.12,109.73A37.29,37.29,0,0,0,372,166.34l-2.89,11.22a2.17,2.17,0,0,0,3.29,2.35l9.69-6.35a37.29,37.29,0,0,0,38.07-63.83ZM378.36,168a34.38,34.38,0,1,1,48-7.85A34.37,34.37,0,0,1,378.36,168Z" style="fill:#e0e0e0"></path><circle cx="398.42" cy="140.06" r="34.37" transform="translate(-20.81 191.03) rotate(-26.3)" style="fill:#fff"></circle></g><path d="M386.2,123.41a21.28,21.28,0,0,1,2.31-1.77,16.79,16.79,0,0,1,2.72-1.46,16.44,16.44,0,0,1,3.16-1,17.93,17.93,0,0,1,3.7-.36,15.58,15.58,0,0,1,4.92.74,11.26,11.26,0,0,1,3.8,2.13,9.5,9.5,0,0,1,2.45,3.34,10.62,10.62,0,0,1,.87,4.37,11.19,11.19,0,0,1-.68,4.09,11.86,11.86,0,0,1-1.71,3,13,13,0,0,1-2.25,2.21l-2.31,1.75a19,19,0,0,0-1.88,1.61,3.25,3.25,0,0,0-.95,1.79l-.71,4.53h-5.25l-.53-5.06a4.16,4.16,0,0,1,.42-2.56,8.09,8.09,0,0,1,1.62-2,21,21,0,0,1,2.25-1.77,21.11,21.11,0,0,0,2.33-1.86,9.62,9.62,0,0,0,1.81-2.27,5.79,5.79,0,0,0,.73-3,4.59,4.59,0,0,0-.42-2,4.44,4.44,0,0,0-1.16-1.52,5.16,5.16,0,0,0-1.79-1,7.08,7.08,0,0,0-2.25-.34,10.31,10.31,0,0,0-3,.38,11.14,11.14,0,0,0-2.08.87c-.57.32-1.05.61-1.45.87a2,2,0,0,1-1.05.39,1.68,1.68,0,0,1-1.61-.93Zm5.86,33.17a4.74,4.74,0,0,1,.36-1.83,4.55,4.55,0,0,1,1-1.49,4.73,4.73,0,0,1,1.49-1,4.65,4.65,0,0,1,1.86-.38,4.57,4.57,0,0,1,1.85.38,5.1,5.1,0,0,1,1.49,1,4.62,4.62,0,0,1,1,1.49,4.76,4.76,0,0,1,0,3.68,4.64,4.64,0,0,1-1,1.47,4.74,4.74,0,0,1-3.34,1.34,4.82,4.82,0,0,1-1.86-.36,4.39,4.39,0,0,1-1.49-1,4.56,4.56,0,0,1-1-1.47A4.73,4.73,0,0,1,392.06,156.58Z" style="fill:#BA68C8"></path></g></g></svg>
